<?xml version="1.0" encoding="utf-8"?>
<!-- Generator: Adobe Illustrator 26.5.0, SVG Export Plug-In . SVG Version: 6.00 Build 0)  -->
<svg version="1.1" id="Layer_1" xmlns="http://www.w3.org/2000/svg" xmlns:xlink="http://www.w3.org/1999/xlink" x="0px" y="0px"
	 viewBox="0 0 1080 1080" style="enable-background:new 0 0 1080 1080;" xml:space="preserve">
<style type="text/css">
	.st0{fill:#FFFFFF;}
	.st1{fill-rule:evenodd;clip-rule:evenodd;fill:#FFFFFF;}
	.st2{fill:#2B454E;}
	.st3{fill:url(#SVGID_1_);}
	.st4{fill-rule:evenodd;clip-rule:evenodd;fill:#68BDA0;}
	.st5{fill-rule:evenodd;clip-rule:evenodd;fill:url(#SVGID_00000003065061649535927190000009820526357445187996_);}
	.st6{fill-rule:evenodd;clip-rule:evenodd;fill:url(#SVGID_00000062167703970144939510000015312091296850877876_);}
	.st7{fill-rule:evenodd;clip-rule:evenodd;fill:url(#SVGID_00000021097698117432832190000008006016791819082410_);}
	.st8{fill-rule:evenodd;clip-rule:evenodd;fill:#2B454E;}
	.st9{fill:url(#SVGID_00000177458444672058188610000015230590222372549806_);}
</style>
<path d="M797.52,822.51h-6.49v-17.2h15.18c2.64,0,4.57-1.61,4.57-4.25c0-2.64-1.97-4.3-4.57-4.3h-12.94c-1.21,0-2.24-1.03-2.24-2.24
	v-3.36h15.76c5.82,0,10.48,3.81,10.48,9.85c0,2.69-0.94,5.11-2.91,6.94c-2.01,1.93-4.75,2.73-7.57,2.73h-9.27V822.51z"/>
<path d="M821.16,822.51v-31.35h4.25c1.21,0,2.24,1.03,2.24,2.24v23.38h17.15l-1.7,4.3c-0.31,0.85-1.16,1.43-2.06,1.43H821.16z"/>
<path d="M846.15,809.03v-17.78h6.49v17.78c0,4.57,2.69,8.02,7.43,8.02c4.79,0,7.34-3.45,7.34-8.02v-17.78h4.25
	c1.21,0,2.24,1.03,2.24,2.24v15.54c0,8.51-5.33,13.97-13.88,13.97S846.15,817.54,846.15,809.03z"/>
<path d="M879.01,817.49c0.98-0.98,2.91-3.45,4.34-3.45c1.34,0,4.79,3.36,9.99,3.36c2.46,0,6.4-0.76,6.4-3.9
	c0-7.21-19.57-0.63-19.57-13.17c0-7.03,6.31-9.58,12.31-9.58c4.57,0,9.45,1.61,12.99,4.52c-1.07,1.08-2.96,3.63-4.57,3.63
	c-1.07,0-4.7-2.55-8.87-2.55c-2.19,0-5.73,0.67-5.73,3.49c0,6.72,19.79,0.4,19.79,13.08c0,7.34-6.94,10.08-13.25,10.08
	C887.79,823,882.73,820.94,879.01,817.49z"/>
<path class="st0" d="M173.9,714.45c0-38.18,30.87-66.12,68.13-66.12c19.91,0,40,8.4,52.97,23.74c-4.38,3.1-14.98,11.87-20.09,11.87
	c-5.48,0-14.79-11.32-32.87-11.32c-23.38,0-40.92,18.45-40.92,41.83s18.27,41.28,41.65,41.28c17.53,0,26.85-10.78,32.14-10.78
	c5.12,0,15.16,8.59,19.55,11.69c-12.6,14.79-32.88,23.38-52.42,23.38C204.76,780.02,173.9,752.63,173.9,714.45z M322.53,714.09
	c0-37.63,30.5-65.94,67.58-65.94c37.08,0,67.76,28.31,67.76,65.94c0,37.63-30.68,65.94-67.76,65.94
	C353.03,780.02,322.53,751.71,322.53,714.09z M430.66,714.09c0-23.38-16.8-41.65-40.55-41.65c-23.56,0-40.37,18.45-40.37,41.65
	c0,23.2,16.81,41.64,40.37,41.64C413.86,755.73,430.66,737.47,430.66,714.09z M579.66,778.01c-4.2,0-9.13-2.01-11.69-5.66
	l-56.08-79.82v85.48h-26.48V650.16h18.08c4.2,0,9.13,2.01,11.51,5.66c17.53,25.75,34.52,52.05,52.6,77.08
	c10.96,15.16,21.92,30.14,32.88,45.12H579.66z M600.49,762.86L574,726.87v-76.72h26.48V762.86z M696.38,676.09l-40.36,101.92h-28.49
	l50.78-127.86h26.12c5.85,0,11.32,3.65,13.52,9.13l46.58,118.72h-28.49L696.38,676.09z M885.28,778.01c-4.2,0-9.13-2.01-11.69-5.66
	l-56.08-79.82v85.48h-26.48V650.16h18.08c4.2,0,9.13,2.01,11.51,5.66c17.53,25.75,34.52,52.05,52.6,77.08
	c10.96,15.16,21.92,30.14,32.88,45.12H885.28z M906.1,762.86l-26.48-35.98v-76.72h26.48V762.86z"/>
<g>
	<path class="st1" d="M363.65,406.19c-3.54,3.54-8.39,5.71-13.69,5.71h-42.62c-10.67,0-19.34-8.73-19.34-19.4
		c0-5.31,2.17-10.21,5.71-13.69c3.48-3.54,8.39-5.71,13.63-5.71h42.62c10.67,0,19.4,8.73,19.4,19.4
		C369.36,397.8,367.19,402.71,363.65,406.19z"/>
	<path class="st1" d="M522.2,412.01c0,41.02,31.32,74.91,72.85,74.91c41.7,0,73.02-33.89,73.02-74.91s-31.32-74.79-73.02-74.79
		C553.52,337.21,522.2,370.99,522.2,412.01z M641.2,412.01c0,26.24-20.2,44.84-46.15,44.84c-25.79,0-45.98-18.6-45.98-44.84
		c0-26.07,20.37-44.67,45.98-44.67C620.72,367.34,641.2,385.93,641.2,412.01z"/>
	<path class="st1" d="M374.04,483.78c-3.48,3.54-8.27,5.71-13.63,5.71h-6.96c-10.67,0-19.4-8.73-19.4-19.4
		c0-5.31,2.17-10.21,5.71-13.69c3.54-3.54,8.27-5.71,13.69-5.71h6.96c10.67,0,19.34,8.73,19.34,19.4
		C379.74,475.39,377.57,480.3,374.04,483.78z"/>
	<path class="st1" d="M396.12,328.6c-3.59,3.54-8.39,5.71-13.75,5.71h-16.94c-10.67,0-19.34-8.73-19.34-19.45
		c0-5.36,2.17-10.15,5.71-13.69c3.48-3.54,8.33-5.71,13.64-5.71h16.94c10.73,0,19.45,8.73,19.45,19.4
		C401.82,320.21,399.65,325.06,396.12,328.6z"/>
	<path class="st1" d="M437.59,561.42c-3.48,3.54-8.39,5.71-13.69,5.71h-33.49c-10.73,0-19.4-8.73-19.4-19.4
		c0-5.36,2.17-10.15,5.71-13.69c3.54-3.54,8.33-5.71,13.69-5.71h33.49c10.67,0,19.4,8.73,19.4,19.4
		C443.3,553.09,441.07,557.88,437.59,561.42z"/>
	<path class="st1" d="M592.48,567.13H491.22c-5.31,0-10.27-2.17-13.69-5.71c-3.54-3.54-5.71-8.33-5.71-13.69
		c0-10.67,8.73-19.4,19.4-19.4h23.56c5.36,0,10.15-2.17,13.63-5.71c3.54-3.54,5.71-8.33,5.71-13.69c0-10.67-8.67-19.45-19.34-19.45
		h-97.5c-5.31,0-10.21-2.17-13.69-5.71c-3.54-3.48-5.71-8.39-5.71-13.69c0-10.67,8.73-19.4,19.4-19.4h56.71
		c5.31,0,10.21-2.17,13.69-5.71c3.54-3.48,5.71-8.39,5.71-13.69c0-10.67-8.73-19.4-19.4-19.4h-67.21c-5.31,0-10.21-2.17-13.69-5.71
		c-3.54-3.48-5.71-8.39-5.71-13.69c0-10.67,8.73-19.4,19.4-19.4h60.64c5.36,0,10.16-2.17,13.69-5.71c3.54-3.48,5.71-8.39,5.71-13.69
		c0-10.67-8.73-19.4-19.4-19.4h-22.48c-5.31,0-10.15-2.17-13.63-5.71c-3.54-3.54-5.71-8.39-5.71-13.75c0-10.67,8.67-19.4,19.34-19.4
		h48.49c27.27-23.9,63.04-38.45,102.18-38.45c64.69,0,121.69,40.16,144.39,98.81h-73.99c-16.83-21.28-42.67-34-70.4-34
		c-49.75,0-90.08,40.33-90.08,90.08c0,49.75,40.33,90.08,90.08,90.08c27.73,0,53.57-12.72,70.4-34h73.99
		c-22.65,58.48-79.36,98.58-143.88,98.81C594.94,567.01,593.68,567.13,592.48,567.13z"/>
</g>
</svg>
